<svg width="48" height="48" viewBox="0 0 128 128" xmlns="http://www.w3.org/2000/svg">
  <!-- Hands -->
  <path d="M 35 70 Q 25 60 25 45 Q 25 35 35 35 Q 45 35 50 45" fill="#7FA899" stroke="none"/>
  <path d="M 93 70 Q 103 60 103 45 Q 103 35 93 35 Q 83 35 78 45" fill="#7FA899" stroke="none"/>
  
  <!-- Fork (Food) -->
  <g transform="translate(25, 25)">
    <path d="M 8 12 L 8 0 M 6 8 L 6 2 M 10 8 L 10 2" stroke="#6B8E7F" stroke-width="2" fill="none" stroke-linecap="round"/>
    <circle cx="8" cy="12" r="1.5" fill="#6B8E7F"/>
  </g>
  
  <!-- Leaf (Sustainability) -->
  <g transform="translate(40, 15)">
    <path d="M 5 2 Q 8 5 8 10 Q 8 5 5 8 Q 2 5 2 10 Q 2 4 5 2" fill="#7FA899"/>
  </g>
  
  <!-- Shirt (Clothes) -->
  <g transform="translate(65, 20)">
    <rect x="2" y="4" width="12" height="8" fill="#D4A574" rx="1"/>
    <rect x="2" y="4" width="3" height="6" fill="#D4A574"/>
    <rect x="11" y="4" width="3" height="6" fill="#D4A574"/>
  </g>
  
  <!-- Book (Books) -->
  <g transform="translate(80, 18)">
    <rect x="2" y="2" width="8" height="10" fill="#D4845C" stroke="#C86D45" stroke-width="0.5"/>
    <line x1="6" y1="2" x2="6" y2="12" stroke="#C86D45" stroke-width="0.5"/>
    <line x1="4" y1="4" x2="8" y2="4" stroke="#FFB366" stroke-width="0.5" opacity="0.6"/>
    <line x1="4" y1="6" x2="8" y2="6" stroke="#FFB366" stroke-width="0.5" opacity="0.6"/>
  </g>
  
  <!-- Center circle outline -->
  <circle cx="64" cy="64" r="58" fill="none" stroke="#7FA899" stroke-width="2" opacity="0.3"/>
</svg>